<svg width="56" height="56" viewBox="0 0 56 56" fill="none" xmlns="http://www.w3.org/2000/svg">
<path d="M37.2877 21.2325C37.6166 21.7196 37.6166 22.5092 37.2877 22.9964C36.9944 23.4306 36.5386 23.4777 36.2101 23.1377L36.2102 23.1376L34.9727 22.0498C34.7156 21.8237 34.3946 21.8303 34.1418 22.0668L27.6336 28.1543L27.7834 31.6752C27.7954 31.9574 27.7054 32.2279 27.547 32.3859L22.044 37.8735C21.8761 38.041 21.9562 38.4292 22.1586 38.4292H34.8858C35.0922 38.4292 35.25 38.1563 35.2182 37.8542L34.945 35.263L41.5671 25.4576C42.2459 24.4526 42.2459 22.8229 41.5671 21.8178L36.1507 13.7976C35.9785 13.5427 35.6837 13.6885 35.6495 14.0454L35.4261 16.3745C35.3131 17.5519 35.5833 18.7389 36.1545 19.5749L37.2917 21.2265L37.2877 21.2325Z" fill="#8D8D8D"/>
<path d="M37.2817 21.22C37.6106 21.7071 37.6106 22.4967 37.2817 22.9839C36.9527 23.4709 36.4195 23.4709 36.0905 22.9839C35.7615 22.4967 35.7615 21.7071 36.0905 21.22C36.4195 20.7329 36.9527 20.7329 37.2817 21.22Z" fill="white"/>
<path d="M27.6328 28.1501L34.9442 35.2588L40.374 27.219L32.7448 23.3686L27.6328 28.1501Z" fill="white"/>
<path d="M38.3906 34.666C38.3906 36.0146 39.129 37.1079 40.0398 37.1079C40.9506 37.1079 41.689 36.0146 41.689 34.666C41.689 33.3173 40.9506 32.2241 40.0398 32.2241C39.129 32.2241 38.3906 33.3173 38.3906 34.666Z" fill="white"/>
<path d="M34.1354 22.0591C34.3263 21.8806 34.5561 21.8334 34.7679 21.9183C34.6453 20.5044 33.9952 19.3107 33.0843 18.8383L29.2292 16.839C28.6162 16.521 27.9489 16.4972 27.3299 16.7887C26.1085 17.3639 25.1392 18.7471 24.7047 20.5284C24.5052 21.3463 23.8747 21.7345 23.3423 21.367L20.7266 19.5609C20.5602 19.4459 20.4995 19.1575 20.5707 18.9068C20.6058 18.7835 20.5689 18.64 20.4862 18.583L18.1669 16.9815C17.4577 16.4918 16.6456 16.443 15.9119 16.8459L14.1636 17.8059C14.0445 17.8712 14.0378 18.1166 14.1528 18.196L28.0252 27.7744L34.1354 22.0591Z" fill="white"/>
<path d="M33.8228 19.4364L26.2344 26.5343L28.0304 27.7744L34.1406 22.0591C34.3316 21.8806 34.5613 21.8336 34.7731 21.9183C34.6868 20.9233 34.3386 20.0386 33.8228 19.4364Z" fill="white"/>
<path d="M28.0249 27.7753L24.2031 25.1364V30.0054C24.5949 29.4412 25.1295 29.0931 25.7191 29.0931C26.6517 29.0931 27.4469 29.9623 27.7561 31.1834L27.7767 31.6685L27.627 28.1475L28.0249 27.7753Z" fill="white"/>
<path d="M27.7796 31.6648L27.759 31.1796C27.4497 29.9587 26.6545 29.0895 25.722 29.0895C24.5207 29.0895 23.5469 30.5315 23.5469 32.3103C23.5469 33.5612 24.029 34.6448 24.7327 35.1782L27.5433 32.3755C27.7016 32.2176 27.7917 31.947 27.7796 31.6648Z" fill="white"/>
<path d="M23.5505 32.3157C23.5505 31.4101 23.8032 30.5923 24.2096 30.0072V28.9599L15.5499 32.3956C14.7046 32.7311 14.2029 34.0177 14.4294 35.2695C14.6559 36.5212 15.5249 37.2641 16.3703 36.9288L23.856 33.9588C23.6625 33.4776 23.5505 32.9163 23.5505 32.3157Z" fill="white"/>
<path d="M22.0172 23.6198L18.972 28.1288C18.8531 28.3049 18.8531 28.5905 18.972 28.7665L19.7614 29.9353C19.8803 30.1114 20.0732 30.1114 20.1921 29.9353L23.6813 24.7688L22.0172 23.6198Z" fill="white"/>
<path d="M19.0611 35.8574C18.7024 37.8997 17.449 39.4076 15.9575 39.4076C14.1865 39.4076 12.7508 37.2818 12.7508 34.6594C12.7508 32.0371 14.1865 29.9112 15.9575 29.9112C16.8506 29.9112 17.6582 30.4523 18.2396 31.3247L20.0845 30.5926C19.1959 28.6193 17.6795 27.3188 15.9575 27.3188C13.2195 27.3188 11 30.6053 11 34.6594C11 38.7135 13.2195 42 15.9575 42C18.5894 42 20.7413 38.9626 20.904 35.1262L19.0611 35.8574Z" fill="white"/>
<path d="M40.0449 39.4076C38.2739 39.4076 36.8381 37.2818 36.8381 34.6594C36.8381 32.0371 38.2739 29.9112 40.0449 29.9112C41.8159 29.9112 43.2515 32.0371 43.2515 34.6594C43.2515 37.2818 41.8159 39.4076 40.0449 39.4076ZM40.2982 27.3283L35.0938 35.0345C35.2256 38.9143 37.3919 42 40.0449 42C42.7828 42 45.0024 38.7135 45.0024 34.6594C45.0024 30.7311 42.9184 27.5236 40.2982 27.3283Z" fill="white"/>
<path d="M37.2877 21.2325C37.6166 21.7196 37.6166 22.5092 37.2877 22.9964C36.9944 23.4306 36.5386 23.4777 36.2101 23.1377L36.2102 23.1376L34.9727 22.0498C34.7156 21.8237 34.3946 21.8303 34.1418 22.0668L27.6336 28.1543L27.7834 31.6752C27.7954 31.9574 27.7054 32.2279 27.547 32.3859L22.044 37.8735C21.8761 38.041 21.9562 38.4292 22.1586 38.4292H34.8858C35.0922 38.4292 35.25 38.1563 35.2182 37.8542L34.945 35.263L41.5671 25.4576C42.2459 24.4526 42.2459 22.8229 41.5671 21.8178L36.1507 13.7976C35.9785 13.5427 35.6837 13.6885 35.6495 14.0454L35.4261 16.3745C35.3131 17.5519 35.5833 18.7389 36.1545 19.5749L37.2877 21.2325Z" stroke="#8D8D8D" stroke-width="0.9" stroke-miterlimit="10" stroke-linecap="round" stroke-linejoin="round"/>
<path d="M36.2042 23.1362C36.1642 23.0949 36.1261 23.0478 36.0905 22.9949C35.7615 22.5079 35.7615 21.7182 36.0905 21.2311C36.4194 20.744 36.9527 20.744 37.2817 21.2311" stroke="#8D8D8D" stroke-width="0.9" stroke-miterlimit="10" stroke-linecap="round" stroke-linejoin="round"/>
<path d="M33.5859 33.9406L34.9417 35.2588" stroke="#8D8D8D" stroke-width="0.9" stroke-miterlimit="10" stroke-linecap="round" stroke-linejoin="round"/>
<path d="M27.6328 28.1427L31.587 31.9873" stroke="#8D8D8D" stroke-width="0.9" stroke-miterlimit="10" stroke-linecap="round" stroke-linejoin="round"/>
<path d="M40.3714 27.2183L32.7422 23.3679" stroke="#8D8D8D" stroke-width="0.9" stroke-miterlimit="10" stroke-linecap="round" stroke-linejoin="round"/>
<path d="M38.3906 34.666C38.3906 36.0146 39.129 37.1079 40.0398 37.1079C40.9506 37.1079 41.689 36.0146 41.689 34.666C41.689 33.3173 40.9506 32.2241 40.0398 32.2241C39.129 32.2241 38.3906 33.3173 38.3906 34.666Z" stroke="#8D8D8D" stroke-width="0.9" stroke-miterlimit="10" stroke-linecap="round" stroke-linejoin="round"/>
<path d="M40.0424 34.6519L38.5234 29.9492" stroke="#8D8D8D" stroke-width="0.9" stroke-miterlimit="10" stroke-linecap="round" stroke-linejoin="round"/>
<path d="M41.6641 34.2383L43.1958 33.8384" stroke="#8D8D8D" stroke-width="0.9" stroke-miterlimit="10" stroke-linecap="round" stroke-linejoin="round"/>
<path d="M40.2734 32.2397L40.4899 29.9592" stroke="#8D8D8D" stroke-width="0.9" stroke-miterlimit="10" stroke-linecap="round" stroke-linejoin="round"/>
<path d="M38.562 33.5864L37.1641 32.5769" stroke="#8D8D8D" stroke-width="0.9" stroke-miterlimit="10" stroke-linecap="round" stroke-linejoin="round"/>
<path d="M38.8929 36.4206L37.8125 38.0771" stroke="#8D8D8D" stroke-width="0.9" stroke-miterlimit="10" stroke-linecap="round" stroke-linejoin="round"/>
<path d="M40.8203 36.8182L41.5505 38.8516" stroke="#8D8D8D" stroke-width="0.9" stroke-miterlimit="10" stroke-linecap="round" stroke-linejoin="round"/>
<path d="M15.9456 37.0079L15.9297 39.4055" stroke="#8D8D8D" stroke-width="0.9" stroke-miterlimit="10" stroke-linecap="round" stroke-linejoin="round"/>
<path d="M15.041 32.7427L14.1016 30.7896" stroke="#8D8D8D" stroke-width="0.9" stroke-miterlimit="10" stroke-linecap="round" stroke-linejoin="round"/>
<path d="M14.4436 35.3654L12.8984 36.085" stroke="#8D8D8D" stroke-width="0.9" stroke-miterlimit="10" stroke-linecap="round" stroke-linejoin="round"/>
<path d="M18.7812 21.3893L28.029 27.7744" stroke="#8D8D8D" stroke-width="0.9" stroke-miterlimit="10" stroke-linecap="round" stroke-linejoin="round"/>
<path d="M34.7679 21.917C34.6453 20.503 33.9952 19.3094 33.0843 18.8369L29.2292 16.8376C28.6162 16.5197 27.949 16.4959 27.3299 16.7874C26.1085 17.3626 25.1391 18.7457 24.7047 20.527C24.5052 21.3451 23.8747 21.7331 23.3424 21.3656L20.7266 19.5595C20.5602 19.4446 20.4996 19.1563 20.5707 18.9056C20.6057 18.7821 20.5689 18.6387 20.4862 18.5816L18.1668 16.9802C17.4576 16.4905 16.6456 16.4417 15.9119 16.8445L14.1635 17.8045C14.0446 17.8698 14.0378 18.1153 14.1528 18.1947L16.6075 19.8896" stroke="#8D8D8D" stroke-width="0.9" stroke-miterlimit="10" stroke-linecap="round" stroke-linejoin="round"/>
<path d="M28.0312 27.7744L34.1414 22.0591C34.3324 21.8806 34.5622 21.8336 34.774 21.9183" stroke="#8D8D8D" stroke-width="0.9" stroke-miterlimit="10" stroke-linecap="round" stroke-linejoin="round"/>
<path d="M30.6299 22.4262L26.2344 26.5376" stroke="#8D8D8D" stroke-width="0.9" stroke-miterlimit="10" stroke-linecap="round" stroke-linejoin="round"/>
<path d="M33.8248 19.4333L32.6562 20.5264" stroke="#8D8D8D" stroke-width="0.9" stroke-miterlimit="10" stroke-linecap="round" stroke-linejoin="round"/>
<path d="M24.9844 19.6339L29.9471 23.0605" stroke="#8D8D8D" stroke-width="0.9" stroke-miterlimit="10" stroke-linecap="round" stroke-linejoin="round"/>
<path d="M27.7561 31.1833L27.7767 31.6685L27.6269 28.1474L28.0249 27.7752L24.2031 25.1364V30.0053" stroke="#8D8D8D" stroke-width="0.9" stroke-miterlimit="10" stroke-linecap="round" stroke-linejoin="round"/>
<path d="M27.759 31.1797C27.4497 29.9588 26.6545 29.0896 25.722 29.0896C24.5207 29.0896 23.5469 30.5315 23.5469 32.3103C23.5469 33.5612 24.029 34.6449 24.7327 35.1782" stroke="#8D8D8D" stroke-width="0.9" stroke-miterlimit="10" stroke-linecap="round" stroke-linejoin="round"/>
<path d="M24.2095 30.0072V28.9599L15.55 32.3956C14.7046 32.7311 14.2028 34.0177 14.4294 35.2695C14.6559 36.5212 15.5249 37.2641 16.3703 36.9288L23.856 33.9588" stroke="#8D8D8D" stroke-width="0.9" stroke-miterlimit="10" stroke-linecap="round" stroke-linejoin="round"/>
<path d="M16.0391 34.6226L21.9136 32.2918" stroke="#8D8D8D" stroke-width="0.9" stroke-miterlimit="10" stroke-linecap="round" stroke-linejoin="round"/>
<path d="M22.0172 23.6258L18.972 28.1347C18.8531 28.3109 18.8531 28.5964 18.972 28.7725" stroke="#8D8D8D" stroke-width="0.9" stroke-miterlimit="10" stroke-linecap="round" stroke-linejoin="round"/>
<path d="M19.7578 29.9353C19.8768 30.1114 20.0696 30.1114 20.1885 29.9353L23.6777 24.7688" stroke="#8D8D8D" stroke-width="0.9" stroke-miterlimit="10" stroke-linecap="round" stroke-linejoin="round"/>
<path d="M20.6641 24.5766L22.5899 27.4282" stroke="#8D8D8D" stroke-width="0.9" stroke-miterlimit="10" stroke-linecap="round" stroke-linejoin="round"/>
<path d="M19.7031 26.0076L21.6291 28.8594" stroke="#8D8D8D" stroke-width="0.9" stroke-miterlimit="10" stroke-linecap="round" stroke-linejoin="round"/>
<path d="M19.0602 35.8553C18.7016 37.8976 17.4481 39.4055 15.9567 39.4055C14.1857 39.4055 12.75 37.2797 12.75 34.6574C12.75 32.0351 14.1857 29.9092 15.9567 29.9092C16.8498 29.9092 17.6573 30.4503 18.2388 31.3227" stroke="#8D8D8D" stroke-width="0.9" stroke-miterlimit="10" stroke-linecap="round" stroke-linejoin="round"/>
<path d="M20.0846 30.5926C19.196 28.6193 17.6795 27.3188 15.9575 27.3188C13.2196 27.3188 11 30.6053 11 34.6593C11 38.7135 13.2196 42 15.9575 42C18.5895 42 20.7413 38.9626 20.904 35.1261" stroke="#8D8D8D" stroke-width="0.9" stroke-miterlimit="10" stroke-linecap="round" stroke-linejoin="round"/>
<path d="M35.0938 35.0345C35.2256 38.9143 37.3919 42 40.0449 42C42.7828 42 45.0024 38.7135 45.0024 34.6594C45.0024 30.7311 42.9184 27.5236 40.2982 27.3283M40.0449 39.4076C38.2739 39.4076 36.8381 37.2818 36.8381 34.6594C36.8381 32.0371 38.2739 29.9112 40.0449 29.9112C41.8159 29.9112 43.2515 32.0371 43.2515 34.6594C43.2515 37.2818 41.8159 39.4076 40.0449 39.4076Z" stroke="#8D8D8D" stroke-width="0.9" stroke-miterlimit="10" stroke-linecap="round" stroke-linejoin="round"/>
</svg>
