<svg width="16" height="20" viewBox="0 0 16 20" fill="none" xmlns="http://www.w3.org/2000/svg">
<path d="M7.21702 18.5709C7.37023 18.6875 7.55747 18.7507 7.75002 18.7507C7.94257 18.7507 8.1298 18.6875 8.28302 18.5709C9.91802 17.3439 14.75 13.3369 14.75 8.76692V3.83692C14.751 3.70975 14.7049 3.58672 14.6205 3.4916C14.5361 3.39648 14.4194 3.33602 14.293 3.32192C12.2907 3.11683 10.3716 2.41343 8.71102 1.27592L8.10102 0.858924C7.99771 0.787977 7.87534 0.75 7.75002 0.75C7.6247 0.75 7.50232 0.787977 7.39902 0.858924L6.78902 1.27592C5.12843 2.41343 3.20936 3.11683 1.20702 3.32192C1.08063 3.33602 0.963952 3.39648 0.879544 3.4916C0.795135 3.58672 0.748986 3.70975 0.750017 3.83692V8.76692C0.750017 13.3369 5.58202 17.3439 7.21702 18.5689" stroke="#2D46C4" stroke-width="1.5" stroke-linecap="round" stroke-linejoin="round"/>
</svg>
